<?xml version="1.0" encoding="UTF-8"?>
<svg id="Layer_1" xmlns="http://www.w3.org/2000/svg" version="1.1" viewBox="0 0 1920 441">
  <!-- Generator: Adobe Illustrator 29.1.0, SVG Export Plug-In . SVG Version: 2.1.0 Build 142)  -->
  <defs>
    <style>
      .st0 {
        fill: #fff;
      }

      .st1 {
        fill: #ff6e32;
      }
    </style>
  </defs>
  <g>
    <g>
      <path class="st0" d="M558.5,372.7v-40.5h8.9v40.5h-8.9Z"/>
      <path class="st0" d="M607.6,373.4c-12.6,0-21.3-8.9-21.3-20.9h0c0-11.6,9-21.1,21.3-21.1s11.7,2,15.9,5.6l-5.6,6.8c-3.1-2.6-5.9-4.1-10.6-4.1s-11.6,5.7-11.6,12.6h0c0,7.5,5.1,13,12.3,13s6.1-.8,8.4-2.4v-5.8h-9v-7.7h17.6v17.6c-4.2,3.5-9.9,6.4-17.3,6.4h0Z"/>
      <path class="st0" d="M669.4,372.7l-8.7-13h-7v13h-8.9v-40.5h18.5c9.6,0,15.3,5,15.3,13.4h0c0,6.7-3.5,10.8-8.7,12.7l9.9,14.5h-10.4ZM669.6,346c0-3.8-2.7-5.8-7-5.8h-8.9v11.6h9c4.3,0,6.8-2.3,6.8-5.7h0c0-.1,0-.1,0-.1Z"/>
      <path class="st0" d="M697.7,372.7v-40.5h30.6v7.9h-21.7v8.2h19.1v7.9h-19.1v8.5h22v7.9h-30.9Z"/>
      <path class="st0" d="M757.3,373.3c-6.3,0-10.5-2.8-13.3-6.1l5.6-6.3c2.3,2.5,4.6,4.1,7.4,4.1s5.4-2,5.4-6.7v-26.1h9.1v26.5c0,9.8-5.8,14.6-14.4,14.6h0Z"/>
      <path class="st0" d="M819.7,372.7l-3.7-9.1h-17.1l-3.7,9.1h-9.1l17.4-40.8h8.2l17.4,40.8h-9.3ZM807.4,342.6l-5.4,13.1h10.8l-5.4-13.1h0Z"/>
      <path class="st0" d="M907.5,372.7v-26.5l-11.4,17.3h-.2l-11.3-17.1v26.3h-8.7v-40.5h9.6l10.7,17.1,10.7-17.1h9.6v40.5h-8.9Z"/>
      <path class="st0" d="M937.4,372.7v-40.5h8.9v40.5h-8.9Z"/>
      <path class="st0" d="M981.4,373.3c-6.1,0-12.3-2.1-17.2-6.5l5.3-6.3c3.7,3,7.5,4.9,12.1,4.9s5.8-1.4,5.8-3.8h0c0-2.4-1.4-3.5-8.2-5.3-8.2-2.1-13.4-4.3-13.4-12.4h0c0-7.5,5.9-12.3,14.2-12.3s10.9,1.9,15.1,5.2l-4.6,6.7c-3.6-2.5-7.1-4-10.5-4s-5.2,1.6-5.2,3.5h0c0,2.8,1.7,3.7,8.7,5.4,8.2,2.1,12.9,5.1,12.9,12.2h0c0,8.2-6.1,12.7-14.9,12.7h0Z"/>
      <path class="st0" d="M1029,373.3c-6.1,0-12.3-2.1-17.2-6.5l5.3-6.3c3.7,3,7.5,4.9,12.1,4.9s5.8-1.4,5.8-3.8h0c0-2.4-1.4-3.5-8.2-5.3-8.2-2.1-13.4-4.3-13.4-12.4h0c0-7.5,5.9-12.3,14.2-12.3s10.9,1.9,15.1,5.2l-4.6,6.7c-3.6-2.5-7.1-4-10.5-4s-5.2,1.6-5.2,3.5h0c0,2.8,1.7,3.7,8.7,5.4,8.2,2.1,12.9,5.1,12.9,12.2h0c0,8.2-6.1,12.7-14.9,12.7h0Z"/>
      <path class="st0" d="M1062.7,372.7v-40.5h8.9v40.5h-8.9Z"/>
      <path class="st0" d="M1111.9,373.4c-12.5,0-21.5-9.3-21.5-20.9h0c0-11.6,9.1-21.1,21.6-21.1s21.5,9.3,21.5,20.9h0c0,11.6-9.1,21.1-21.6,21.1ZM1124.2,352.5c0-7-5.1-12.7-12.3-12.7s-12.2,5.7-12.2,12.6h0c0,7.1,5.1,12.9,12.3,12.9s12.2-5.7,12.2-12.6h0c0-.1,0-.1,0-.1Z"/>
      <path class="st0" d="M1180.6,372.7l-19.6-25.8v25.8h-8.8v-40.5h8.2l19,25v-25h8.8v40.5h-7.6,0Z"/>
      <path class="st0" d="M1238.4,372.7l-3.7-9.1h-17.1l-3.7,9.1h-9.1l17.4-40.8h8.2l17.4,40.8h-9.3ZM1226.1,342.6l-5.4,13.1h10.8l-5.4-13.1h0ZM1222.5,329l6.5-10.3,7.6,3.3-7.4,7h-6.7Z"/>
      <path class="st0" d="M1289,372.7l-8.7-13h-7v13h-8.9v-40.5h18.5c9.6,0,15.3,5,15.3,13.4h0c0,6.7-3.5,10.8-8.7,12.7l9.9,14.5h-10.4ZM1289.1,346c0-3.8-2.7-5.8-7-5.8h-8.9v11.6h9c4.3,0,6.8-2.3,6.8-5.7h0c0-.1,0-.1,0-.1Z"/>
      <path class="st0" d="M1317.4,372.7v-40.5h8.9v40.5h-8.9Z"/>
      <path class="st0" d="M1376.6,372.7l-3.7-9.1h-17.1l-3.7,9.1h-9.1l17.4-40.8h8.2l17.4,40.8h-9.3ZM1364.3,342.6l-5.4,13.1h10.8l-5.4-13.1h0Z"/>
      <path class="st0" d="M1432.7,372.7v-40.5h30.6v7.9h-21.7v8.2h19.1v7.9h-19.1v8.5h22v7.9h-30.9,0Z"/>
      <path class="st0" d="M1503.5,373h-7.9l-16.4-40.8h9.8l10.6,28.6,10.6-28.6h9.6l-16.4,40.8h0Z"/>
      <path class="st0" d="M1562.3,372.7l-3.7-9.1h-17.1l-3.7,9.1h-9.1l17.4-40.8h8.2l17.4,40.8h-9.3ZM1550,342.6l-5.4,13.1h10.8l-5.4-13.1h0Z"/>
      <path class="st0" d="M1616.7,372.7l-19.6-25.8v25.8h-8.8v-40.5h8.2l19,25v-25h8.8v40.5h-7.6,0Z"/>
      <path class="st0" d="M1664.3,373.4c-12.6,0-21.3-8.9-21.3-20.9h0c0-11.6,9-21.1,21.3-21.1s11.7,2,15.9,5.6l-5.6,6.8c-3.1-2.6-5.9-4.1-10.6-4.1s-11.6,5.7-11.6,12.6h0c0,7.5,5.1,13,12.3,13s6.1-.8,8.4-2.4v-5.8h-9v-7.7h17.6v17.6c-4.2,3.5-9.9,6.4-17.3,6.4h0Z"/>
      <path class="st0" d="M1701.5,372.7v-40.5h30.6v7.9h-21.7v8.2h19.1v7.9h-19.1v8.5h22v7.9h-30.9,0ZM1711.9,329l6.5-10.3,7.6,3.3-7.4,7h-6.7Z"/>
      <path class="st0" d="M1751.7,372.7v-40.5h8.9v32.4h20.2v8.1h-29.1Z"/>
      <path class="st0" d="M1797.8,372.7v-40.5h8.9v40.5h-8.9Z"/>
      <path class="st0" d="M1846.3,373.4c-11.9,0-20.8-9.2-20.8-20.9h0c0-11.6,8.7-21.1,21.1-21.1s12.2,2.5,16,6.3l-5.7,6.5c-3.1-2.8-6.3-4.6-10.4-4.6-6.8,0-11.8,5.7-11.8,12.6h0c0,7.1,4.8,12.9,11.8,12.9s7.5-1.9,10.7-4.7l5.7,5.7c-4.2,4.5-8.8,7.2-16.6,7.2h0Z"/>
      <path class="st0" d="M1910.7,372.7l-3.7-9.1h-17.1l-3.7,9.1h-9.1l17.4-40.8h8.2l17.4,40.8h-9.3ZM1898.4,342.6l-5.4,13.1h10.8l-5.4-13.1h0Z"/>
    </g>
    <g>
      <path class="st0" d="M1075.4,205.8c5.5-9.1,8.2-18.6,8.2-28.6s-2.3-18-7-26.4c-4.7-8.4-11.3-15.2-19.9-20.4-8.6-5.2-18.4-7.8-29.5-7.8h-75.2v162.7h33.5v-130.5h41.6c4.2,0,8.1,1,11.5,3.1,3.5,2.1,6.2,4.9,8.3,8.3,2,3.5,3.1,7.1,3.1,10.9s-1,7.7-3,11.2-4.7,6.3-8.3,8.5c-3.5,2.1-7.4,3.2-11.6,3.2-10.5,0-18.3,0-23.6-.2h-5.8l49.7,85.5h38.2l-33.3-58.8c9.9-4.8,17.5-11.7,23-20.7h0Z"/>
      <polygon class="st1" points="1769.5 82.6 1716 82.6 1716 29.1 1675.9 29.1 1675.9 82.6 1622.5 82.6 1622.5 122.7 1675.9 122.7 1675.9 285.3 1716 285.3 1716 122.7 1769.5 122.7 1769.5 82.6"/>
      <polygon class="st0" points="718.4 122.7 646.1 203.8 573.7 122.7 558.5 122.7 558.5 285.3 592.2 285.3 592.2 197.5 646.1 252.3 699.9 197.5 699.9 285.3 733.6 285.3 733.6 122.7 718.4 122.7"/>
      <path class="st0" d="M835.8,122.7l-76.2,162.7h37.3l9.5-19.2h76.4l9.5,19.2h37.3l-78.3-162.7h-15.5ZM820,238.5l24.6-49.7,24.5,49.7h-49.1Z"/>
      <path class="st0" d="M1189.4,122.7l-76.2,162.7h37.3l9.5-19.2h76.4l9.5,19.2h37.3l-78.3-162.7h-15.5ZM1173.7,238.5l24.6-49.7,24.5,49.7h-49.1Z"/>
      <path class="st0" d="M1551.2,122.7l-76.2,162.7h37.3l9.5-19.2h76.4l9.5,19.2h37.3l-78.3-162.7h-15.5ZM1535.5,238.5l24.6-49.7,24.5,49.7h-49.1Z"/>
      <path class="st0" d="M1826.2,122.7l-76.2,162.7h37.3l9.5-19.2h76.4l9.5,19.2h37.3l-78.3-162.7h-15.5ZM1810.5,238.5l24.6-49.7,24.5,49.7h-49.1Z"/>
      <polygon class="st0" points="1449.8 285.3 1449.8 123.9 1416.3 123.9 1416.3 208.7 1326.6 122.7 1310.6 122.7 1310.6 285.3 1344.2 285.3 1344.2 195.5 1439.8 285.3 1449.8 285.3"/>
    </g>
  </g>
  <g>
    <path class="st1" d="M430.8,369.8c-.1,0-.3,0-.4,0h0c-9.5,4.7-23.4,5.7-39.6,3-15.5-2.5-33-8.4-50.5-17.6-22.6-11.9-40.8-26.9-51.8-41.6-4.2-5.6-7.4-11.2-9.4-16.5-.1-.3-.2-.6-.2-.9,0-1.3,1-2.3,2.3-2.3s.2,0,.2,0h0c2,.2,4.1.3,6.1.5,15.9,1,31-.3,44.1-3.3,11.8-2.7,21.9-6.9,29.6-12.1.5-.3,1-.7,1.4-1,0,0,3.5-2.6,5.2-3.8,13.1-9.8,25.2-21,36.1-33.2,14.7-16.5,27.1-35.1,36.9-55.2h0c.9-2,1.8-4,2.8-6,3.2-6.2,7.1-12.6,11.7-19,4.3-6,9.2-11.9,14.7-17.6,1.7-1.8,3.5-3.6,5.2-5.3,13.8-13.4,28.7-23.4,42.2-29,1-.4,1-1.9,0-2.3-16.8-6.4-34.3-11.4-52.4-14.8-5.7-1.1-11.5-2-17.3-2.8-12.1-1.6-24.4-2.4-36.9-2.6-1.1,0-2.2,0-3.3,0-85.3,0-162.5,34.7-218.3,90.7,0,0,0,0,0,0-2.3,2.3-5,4-8.1,4.8-6.4,1.6-13.3-.8-19.6-6.2-1.1-.9-2.2-2-3.2-3.1-2-2.1-19.7-23.9-23.1-28.8-2-2.9-5.3-7.7-5.6-8.2-1.1-1.7-10.1-13.1-10.5-13.4-1.8-1.9-4.3-4.4-7.3-7-.7-.6-1.5-1.3-2.5-2.2-.7-.6-1.6-1.3-2.4-2-.2-.2-.5-.4-.7-.5-2.4-1.8-4.8-3.5-7.3-5-.4-.2-.7-.4-1.1-.7-.4-.2-.8-.5-1.3-.7-2.6-1.5-5-2.6-6.8-3.5,0,0,0,0,0,0-.6-.3-1.2-.5-1.8-.8-.5-.2-.9-.4-1.3-.5-7.2-2.8-14.1-4-19.8-3.3,0,0-2,.3-3.1.4C35.4,101,12,114.8.2,131.8c-.5.7,0,1.8.8,1.9,4.8.9,9.7,2.4,14.4,4.7,4.6,2.2,9.2,5,13.4,8.5,12.8,10.4,20.4,24.4,21.7,37.5h0c0,.9.2,1.7.2,2.6.2,3.3.3,6.7.3,10.1s0,4.1-.1,6.1h0c-.4,5.7-.7,11.4-.7,17.2,0,11.7.9,23.3,2.7,34.5,5.4,34.4,18.8,66.2,38.2,93.4,3.2,4.4,6.5,8.8,10,13,1,1.2,2.1,2.5,3.1,3.7.1.1.2.3.4.4,6.8,7.7,14,15,21.8,21.7.7.6,1.4,1.2,2,1.7,7.4,6.3,15.3,12.1,23.5,17.3,10.7,6.9,22.1,12.8,34,17.8,26.1,10.9,54.8,16.9,84.8,16.9s17.2-.5,25.7-1.5c8.7-1,17.2-2.5,25.5-4.5,11.7-2.8,23.1-6.5,34-11.1,13.4-5.6,26.1-12.5,38-20.5,9.5-6.4,18.5-13.5,26.8-21.3,3.7-3.4,7.2-6.9,10.6-10.5,0,0,0,0,0-.1.2-.2.2-.4.2-.6,0-.6-.5-1-1-1h0Z"/>
    <path class="st1" d="M491,206.7c0-.7-.8-1-1.4-.6-5.2,4.3-10.3,9.1-15.3,14.3-3.4,3.6-6.6,7.3-9.6,11-.1.1-.2.3-.2.5-.1,2.3-.3,4.6-.5,6.9-2.3,24.8-9.4,48.3-20.2,69.5-2.9,5.7-6.1,11.3-9.6,16.7-9,14.1-19.9,27-32.2,38.3-.8.7-1.5,1.4-2.3,2.1-2.9,2.6-5.9,5.1-8.9,7.5,16.1,2.7,30.1,1.7,39.6-3h0c.1,0,.3,0,.4,0,.6,0,1,.4,1,1s0,.5-.2.6c1.9-2,3.7-4,5.5-6,.4-.4.7-.8,1.1-1.3,12.5-14.5,23.2-30.7,31.6-48.2,12.7-26.3,20.3-55.6,21.5-86.4.1-3,.2-6,.2-9,0-4.6-.1-9.2-.4-13.7h0Z"/>
    <path class="st1" d="M411,86.4c12.5.1,24.8,1,36.9,2.6-2.7-3.7-5.6-7.3-8.6-10.8-6.1-7.3-12.8-14.1-19.8-20.6-1.3-1.2-2.7-2.4-4.1-3.6-8.7-7.5-17.9-14.4-27.7-20.5-10.1-6.3-20.6-11.8-31.7-16.4-10.9-4.6-22.3-8.3-34-11.1-8.3-2-16.8-3.5-25.5-4.5C288.2.5,279.6,0,270.9,0,240.8,0,212.2,6,186.1,16.9c-11.9,5-23.3,10.9-34,17.8-5.2,3.3-10.2,6.9-15.1,10.6-.6.5-.5,1.5.2,1.8,7.1,3.3,14.5,8,21.5,14.2.4.3.9.4,1.3,0,8.2-5.8,17-10.9,26.1-15.3,25.6-12.5,54.4-19.5,84.8-19.5s17.3.6,25.7,1.7c8.7,1.1,17.2,2.9,25.5,5.1.1,0,.2,0,.3,0,11.7,3.2,22.9,7.5,33.6,12.7,7.1,3.5,13.9,7.3,20.4,11.6,7,4.6,13.8,9.6,20.2,15,5,4.3,9.8,8.8,14.4,13.6h0Z"/>
  </g>
</svg>